P1
10 10
0000000000
0000000010
0010000100
0001001000
0000110000
0000110000
0001001000
0010000100
0000000000
0000000000
