P1
10 10
0000000000
0100000010
0010000100
0001001000
0000110000
0000110000
0001001000
0010000100
0100000010
0000000000